<svg width="208" height="121" viewBox="0 0 208 121" fill="none" xmlns="http://www.w3.org/2000/svg">
<g filter="url(#filter0_d_4_99)">
<mask id="mask0_4_99" style="mask-type:alpha" maskUnits="userSpaceOnUse" x="1" y="2" width="100" height="100">
<rect x="1" y="2" width="100" height="100" fill="#D9D9D9"/>
</mask>
<g mask="url(#mask0_4_99)">
<g style="mix-blend-mode:multiply">
<circle cx="5.5" cy="18.5" r="19.5" fill="#D4D620"/>
</g>
<g style="mix-blend-mode:multiply">
<circle cx="47.5" cy="11.5" r="19.5" fill="#F6C921"/>
</g>
<g style="mix-blend-mode:multiply">
<circle cx="66.5" cy="20.5" r="19.5" fill="#EEAC16"/>
</g>
<g style="mix-blend-mode:multiply">
<circle cx="46.5" cy="43.5" r="19.5" fill="#FFD52A"/>
</g>
<g style="mix-blend-mode:multiply">
<circle cx="14.5" cy="42.5" r="19.5" fill="#DFE135"/>
</g>
<g style="mix-blend-mode:multiply">
<circle cx="13.5" cy="74.5" r="19.5" fill="#80B750"/>
</g>
<g style="mix-blend-mode:multiply">
<circle cx="77.5" cy="45.5" r="19.5" fill="#E35711"/>
</g>
<g style="mix-blend-mode:multiply">
<circle cx="91.5" cy="25.5" r="19.5" fill="#EC5E04"/>
</g>
<g style="mix-blend-mode:multiply">
<circle cx="34.5" cy="65.5" r="19.5" fill="#66B13D"/>
</g>
<g style="mix-blend-mode:multiply">
<circle cx="27.5" cy="89.5" r="19.5" fill="#ADCF3D"/>
</g>
<g style="mix-blend-mode:multiply">
<circle cx="93.5" cy="74.5" r="19.5" fill="#ED832F"/>
</g>
<g style="mix-blend-mode:multiply" opacity="0.7">
<circle cx="96.5" cy="93.5" r="19.5" fill="#F3B025"/>
</g>
<g style="mix-blend-mode:multiply" opacity="0.7">
<circle cx="72.5" cy="87.5" r="19.5" fill="#F3B025"/>
</g>
</g>
</g>
<rect x="1.5" y="2.5" width="99" height="99" stroke="url(#paint0_linear_4_99)"/>
<mask id="mask1_4_99" style="mask-type:alpha" maskUnits="userSpaceOnUse" x="106" y="2" width="100" height="100">
<rect x="106" y="2" width="100" height="100" fill="white"/>
</mask>
<g mask="url(#mask1_4_99)">
<g style="mix-blend-mode:multiply">
<rect x="97.1462" y="7.75586" width="21.6632" height="21.6632" fill="#DC93C1"/>
</g>
<g style="mix-blend-mode:multiply">
<rect x="105.998" y="20.4595" width="21.6632" height="21.6632" fill="#D41C78"/>
</g>
<g style="mix-blend-mode:multiply">
<rect x="117.662" y="35.457" width="21.6632" height="21.6632" fill="#D5298B"/>
</g>
<g style="mix-blend-mode:multiply">
<rect x="129.327" y="50.4547" width="21.6632" height="21.6632" fill="#C6217D"/>
</g>
<g style="mix-blend-mode:multiply">
<rect x="143.243" y="56.9255" width="21.6632" height="21.6632" fill="#D82911"/>
</g>
<g style="mix-blend-mode:multiply">
<rect x="152.657" y="75.4507" width="21.6632" height="21.6632" fill="#F19E19"/>
</g>
<g style="mix-blend-mode:multiply">
<rect x="166.291" y="86.1199" width="21.6632" height="21.6632" fill="#E92F78"/>
</g>
<g style="mix-blend-mode:multiply">
<rect x="91" y="32.1242" width="21.6632" height="21.6632" fill="#C32C86"/>
</g>
<g style="mix-blend-mode:multiply">
<rect x="120.194" y="9.29242" width="21.6632" height="21.6632" fill="#61337E"/>
</g>
<g style="mix-blend-mode:multiply">
<rect x="129.327" y="25.4586" width="21.6632" height="21.6632" fill="#30094A"/>
</g>
<g style="mix-blend-mode:multiply">
<rect x="104.829" y="50.7793" width="21.6632" height="21.6632" fill="#DF2162"/>
</g>
<g style="mix-blend-mode:multiply">
<rect x="152.657" y="8.79466" width="21.6632" height="21.6632" fill="#D4C7DE"/>
</g>
<g style="mix-blend-mode:multiply">
<rect x="159.322" y="42.1227" width="21.6632" height="21.6632" fill="#DC226B"/>
</g>
<g style="mix-blend-mode:multiply">
<rect x="124.328" y="73.7843" width="21.6632" height="21.6632" fill="#E491BF"/>
</g>
<g style="mix-blend-mode:multiply">
<rect x="138.633" y="83.0468" width="21.6632" height="21.6632" fill="#EF6F11"/>
</g>
<g style="mix-blend-mode:multiply">
<rect x="153.999" y="52.3158" width="21.6632" height="21.6632" fill="#C8041C"/>
</g>
<g style="mix-blend-mode:multiply">
<rect x="177.48" y="75.7969" width="21.6632" height="21.6632" fill="#DC1F69"/>
</g>
<g style="mix-blend-mode:multiply">
<rect x="175.986" y="27.1251" width="21.6632" height="21.6632" fill="#BF2B83"/>
</g>
<g style="mix-blend-mode:multiply">
<rect x="174.32" y="55.4538" width="21.6632" height="21.6632" fill="#FAEBC3"/>
</g>
<g style="mix-blend-mode:multiply">
<rect x="187.651" y="15.4603" width="21.6632" height="21.6632" fill="#60327E"/>
</g>
<g style="mix-blend-mode:multiply">
<rect x="199.316" y="20.4595" width="21.6632" height="21.6632" fill="#C8CDE3"/>
</g>
<g style="mix-blend-mode:multiply">
<rect x="189.318" y="43.789" width="21.6632" height="21.6632" fill="#D31209"/>
</g>
<g style="mix-blend-mode:multiply">
<rect x="97.6656" y="62.1195" width="21.6632" height="21.6632" fill="#DE203D"/>
</g>
<g style="mix-blend-mode:multiply">
<rect x="109.439" y="76.9007" width="21.6632" height="21.6632" fill="#C71F7A"/>
</g>
<g style="mix-blend-mode:multiply">
<rect x="137.097" y="-3" width="21.6632" height="21.6632" fill="#7E3C93"/>
</g>
<g style="mix-blend-mode:multiply">
<rect x="162.655" y="18.793" width="21.6632" height="21.6632" fill="#83287E"/>
</g>
<g style="mix-blend-mode:multiply">
<rect x="144.779" y="21.5848" width="21.6632" height="21.6632" fill="#DF225F"/>
</g>
<g style="mix-blend-mode:multiply">
<rect x="184.73" y="61.5351" width="21.6632" height="21.6632" fill="#C9052B"/>
</g>
</g>
<rect x="106.5" y="2.5" width="99" height="99" stroke="url(#paint1_linear_4_99)"/>
<path d="M11.6911 115.72C11.702 117.141 11.2952 118.253 10.4707 119.056C9.6462 119.848 8.51254 120.244 7.0697 120.244C6.21267 120.244 5.42074 120.049 4.69389 119.658C3.9779 119.268 3.40835 118.714 2.98526 117.998C2.56217 117.282 2.35063 116.458 2.35063 115.525V113.149C2.35063 112.227 2.55133 111.408 2.95272 110.692C3.36496 109.976 3.92365 109.423 4.6288 109.032C5.3448 108.631 6.14216 108.43 7.02088 108.43C8.46372 108.43 9.59196 108.826 10.4056 109.618C11.2301 110.399 11.6477 111.506 11.6586 112.938H8.72951C8.71866 112.384 8.56678 111.956 8.27387 111.652C7.99182 111.348 7.57415 111.196 7.02088 111.196C6.52185 111.196 6.10961 111.354 5.78416 111.668C5.45871 111.983 5.29598 112.428 5.29598 113.003V115.655C5.29598 116.23 5.46413 116.68 5.80043 117.006C6.14758 117.32 6.57067 117.478 7.0697 117.478C8.20878 117.478 8.77833 116.892 8.77833 115.72H11.6911ZM18.7573 108.674H19.3919L24.0459 120H23.395L21.8654 116.257H16.2838L14.7379 120H14.1033L18.7573 108.674ZM16.5279 115.671H21.6213L19.0665 109.455L16.5279 115.671ZM26.6859 120V108.674H27.3205L35.229 116.355V108.674H35.8311V120H35.229V117.201L27.288 109.455V120H26.6859ZM38.8128 108.674L43.1413 119.203L47.4699 108.674H48.1045L43.4505 120H42.8159L38.1619 108.674H38.8128ZM54.894 108.674H55.5286L60.1826 120H59.5317L58.0021 116.257H52.4206L50.8747 120H50.24L54.894 108.674ZM52.6646 115.671H57.758L55.2032 109.455L52.6646 115.671ZM67.4928 114.581C66.5707 114.397 65.8168 114.196 65.2309 113.979C64.656 113.751 64.2003 113.448 63.864 113.068C63.5386 112.677 63.3759 112.178 63.3759 111.571C63.3759 110.942 63.5386 110.388 63.864 109.911C64.2003 109.434 64.6668 109.065 65.2635 108.804C65.871 108.544 66.5707 108.414 67.3627 108.414C68.1221 108.414 68.8164 108.577 69.4456 108.902C70.0856 109.217 70.5901 109.661 70.9589 110.236C71.3278 110.811 71.5122 111.468 71.5122 112.205H70.9101C70.9101 111.565 70.7528 111.001 70.4382 110.513C70.1236 110.025 69.6951 109.651 69.1527 109.39C68.6102 109.119 68.0081 108.983 67.3464 108.983C66.7606 108.983 66.2127 109.076 65.7029 109.26C65.193 109.444 64.7753 109.727 64.4499 110.106C64.1353 110.486 63.978 110.963 63.978 111.538C63.978 112.059 64.1298 112.477 64.4336 112.791C64.7373 113.095 65.1333 113.328 65.6215 113.491C66.1097 113.654 66.7931 113.827 67.6718 114.012C68.5614 114.196 69.2503 114.375 69.7385 114.549C70.2375 114.711 70.6552 114.988 70.9915 115.379C71.3386 115.769 71.5122 116.317 71.5122 117.022C71.5122 117.727 71.3223 118.324 70.9426 118.812C70.5738 119.289 70.0802 119.647 69.4618 119.886C68.8435 120.125 68.1709 120.244 67.444 120.244C66.5436 120.244 65.7517 120.076 65.0682 119.74C64.3848 119.403 63.8586 118.931 63.4898 118.324C63.1318 117.706 62.9528 117 62.9528 116.208H63.5549C63.5549 116.903 63.7067 117.51 64.0105 118.031C64.3251 118.552 64.7753 118.959 65.3611 119.251C65.9469 119.534 66.6412 119.675 67.444 119.675C68.4421 119.675 69.2666 119.436 69.9175 118.959C70.5792 118.481 70.9101 117.83 70.9101 117.006C70.9101 116.442 70.7691 116.008 70.487 115.704C70.205 115.4 69.847 115.183 69.413 115.053C68.9899 114.912 68.3499 114.755 67.4928 114.581ZM96.2868 117.12V120H87.6623V108.674H88.2644V117.12H96.2868ZM99.48 108.674H107.454V109.276H100.082V113.865H106.494V114.467H100.082V119.398H107.454V120H99.48V108.674ZM115.122 108.674H115.757L120.41 120H119.76L118.23 116.257H112.648L111.103 120H110.468L115.122 108.674ZM112.893 115.671H117.986L115.431 109.455L112.893 115.671ZM129.934 109.049C130.585 109.352 131.095 109.802 131.463 110.399C131.843 110.996 132.033 111.658 132.033 112.384C132.033 113.231 131.773 113.99 131.252 114.663C130.742 115.324 130.086 115.764 129.283 115.981L132.163 120H131.447L128.665 116.095L128.144 116.111H124.059V120H123.457V108.674H127.77C128.247 108.674 128.654 108.707 128.99 108.772C129.337 108.826 129.652 108.918 129.934 109.049ZM128.307 115.509C128.871 115.509 129.391 115.368 129.869 115.086C130.346 114.804 130.726 114.424 131.008 113.947C131.29 113.469 131.431 112.949 131.431 112.384C131.431 111.755 131.263 111.186 130.926 110.676C130.601 110.166 130.145 109.786 129.56 109.537C129.136 109.363 128.54 109.276 127.77 109.276H124.059V115.509H128.307ZM135.096 120V108.674H135.731L143.639 116.355V108.674H144.241V120H143.639V117.201L135.698 109.455V120H135.096ZM159.545 120V108.674H163.76C164.584 108.674 165.344 108.88 166.038 109.293C166.743 109.705 167.302 110.264 167.714 110.969C168.126 111.663 168.332 112.422 168.332 113.247V115.427C168.332 116.252 168.126 117.017 167.714 117.722C167.302 118.416 166.743 118.969 166.038 119.382C165.344 119.794 164.584 120 163.76 120H159.545ZM175.659 108.43C176.505 108.43 177.286 108.642 178.002 109.065C178.718 109.477 179.282 110.041 179.695 110.757C180.118 111.473 180.329 112.254 180.329 113.1V115.574C180.329 116.42 180.118 117.201 179.695 117.917C179.282 118.633 178.718 119.203 178.002 119.626C177.286 120.038 176.505 120.244 175.659 120.244C174.813 120.244 174.032 120.038 173.316 119.626C172.6 119.203 172.03 118.633 171.607 117.917C171.195 117.201 170.989 116.42 170.989 115.574V113.1C170.989 112.254 171.195 111.473 171.607 110.757C172.03 110.041 172.6 109.477 173.316 109.065C174.032 108.642 174.813 108.43 175.659 108.43ZM171.591 115.574C171.591 116.312 171.77 116.995 172.128 117.624C172.497 118.243 172.99 118.736 173.609 119.105C174.238 119.463 174.921 119.642 175.659 119.642C176.397 119.642 177.075 119.463 177.693 119.105C178.322 118.736 178.816 118.243 179.174 117.624C179.543 116.995 179.727 116.312 179.727 115.574V113.1C179.727 112.363 179.543 111.685 179.174 111.066C178.816 110.437 178.322 109.944 177.693 109.586C177.075 109.217 176.397 109.032 175.659 109.032C174.921 109.032 174.238 109.217 173.609 109.586C172.99 109.944 172.497 110.437 172.128 111.066C171.77 111.685 171.591 112.363 171.591 113.1V115.574ZM183.815 115.671C183.815 116.387 183.994 117.049 184.352 117.657C184.721 118.264 185.209 118.747 185.817 119.105C186.435 119.463 187.102 119.642 187.818 119.642C188.556 119.642 189.223 119.496 189.82 119.203C190.417 118.91 190.883 118.503 191.219 117.982C191.567 117.461 191.746 116.876 191.756 116.225H192.342C192.342 116.973 192.142 117.657 191.74 118.275C191.35 118.883 190.807 119.365 190.113 119.723C189.429 120.071 188.665 120.244 187.818 120.244C186.994 120.244 186.229 120.038 185.524 119.626C184.819 119.213 184.26 118.66 183.848 117.966C183.436 117.261 183.23 116.496 183.23 115.671V113.003C183.23 112.178 183.43 111.419 183.832 110.725C184.244 110.019 184.797 109.461 185.491 109.049C186.197 108.636 186.961 108.43 187.786 108.43C188.621 108.43 189.381 108.609 190.064 108.967C190.758 109.314 191.306 109.797 191.708 110.415C192.109 111.023 192.31 111.701 192.31 112.449H191.724C191.713 111.799 191.534 111.213 191.187 110.692C190.84 110.171 190.368 109.765 189.771 109.472C189.185 109.179 188.524 109.032 187.786 109.032C187.07 109.032 186.408 109.211 185.801 109.569C185.193 109.927 184.71 110.41 184.352 111.017C183.994 111.625 183.815 112.287 183.815 113.003V115.671ZM199.994 114.581C199.072 114.397 198.318 114.196 197.732 113.979C197.157 113.751 196.702 113.448 196.365 113.068C196.04 112.677 195.877 112.178 195.877 111.571C195.877 110.942 196.04 110.388 196.365 109.911C196.702 109.434 197.168 109.065 197.765 108.804C198.372 108.544 199.072 108.414 199.864 108.414C200.623 108.414 201.318 108.577 201.947 108.902C202.587 109.217 203.091 109.661 203.46 110.236C203.829 110.811 204.014 111.468 204.014 112.205H203.411C203.411 111.565 203.254 111.001 202.94 110.513C202.625 110.025 202.196 109.651 201.654 109.39C201.112 109.119 200.509 108.983 199.848 108.983C199.262 108.983 198.714 109.076 198.204 109.26C197.694 109.444 197.277 109.727 196.951 110.106C196.637 110.486 196.479 110.963 196.479 111.538C196.479 112.059 196.631 112.477 196.935 112.791C197.239 113.095 197.635 113.328 198.123 113.491C198.611 113.654 199.294 113.827 200.173 114.012C201.063 114.196 201.752 114.375 202.24 114.549C202.739 114.711 203.156 114.988 203.493 115.379C203.84 115.769 204.014 116.317 204.014 117.022C204.014 117.727 203.824 118.324 203.444 118.812C203.075 119.289 202.582 119.647 201.963 119.886C201.345 120.125 200.672 120.244 199.945 120.244C199.045 120.244 198.253 120.076 197.57 119.74C196.886 119.403 196.36 118.931 195.991 118.324C195.633 117.706 195.454 117 195.454 116.208H196.056C196.056 116.903 196.208 117.51 196.512 118.031C196.826 118.552 197.277 118.959 197.862 119.251C198.448 119.534 199.143 119.675 199.945 119.675C200.943 119.675 201.768 119.436 202.419 118.959C203.081 118.481 203.411 117.83 203.411 117.006C203.411 116.442 203.27 116.008 202.988 115.704C202.706 115.4 202.348 115.183 201.914 115.053C201.491 114.912 200.851 114.755 199.994 114.581Z" fill="url(#paint2_linear_4_99)"/>
<defs>
<filter id="filter0_d_4_99" x="0" y="1" width="102" height="102" filterUnits="userSpaceOnUse" color-interpolation-filters="sRGB">
<feFlood flood-opacity="0" result="BackgroundImageFix"/>
<feColorMatrix in="SourceAlpha" type="matrix" values="0 0 0 0 0 0 0 0 0 0 0 0 0 0 0 0 0 0 127 0" result="hardAlpha"/>
<feOffset/>
<feGaussianBlur stdDeviation="0.5"/>
<feComposite in2="hardAlpha" operator="out"/>
<feColorMatrix type="matrix" values="0 0 0 0 0 0 0 0 0 0 0 0 0 0 0 0 0 0 0.06 0"/>
<feBlend mode="normal" in2="BackgroundImageFix" result="effect1_dropShadow_4_99"/>
<feBlend mode="normal" in="SourceGraphic" in2="effect1_dropShadow_4_99" result="shape"/>
</filter>
<linearGradient id="paint0_linear_4_99" x1="51" y1="2" x2="51" y2="102" gradientUnits="userSpaceOnUse">
<stop stop-color="#F6C921"/>
<stop offset="0.390625" stop-color="#EF6F11"/>
<stop offset="0.75" stop-color="#F6C921"/>
</linearGradient>
<linearGradient id="paint1_linear_4_99" x1="156" y1="2" x2="156" y2="102" gradientUnits="userSpaceOnUse">
<stop stop-color="#30094A"/>
<stop offset="0.213542" stop-color="#DC1F69"/>
<stop offset="0.552083" stop-color="#60327E"/>
</linearGradient>
<linearGradient id="paint2_linear_4_99" x1="12.8497" y1="116.2" x2="196.865" y2="91.3564" gradientUnits="userSpaceOnUse">
<stop stop-color="#C9052B"/>
<stop offset="0.166667" stop-color="#DC1F69"/>
<stop offset="0.377457" stop-color="#EF6F11"/>
<stop offset="0.645833" stop-color="#EC5E04"/>
<stop offset="0.78125" stop-color="#EF9D29"/>
<stop offset="0.916667" stop-color="#F3B247"/>
<stop offset="1" stop-color="#F7C866"/>
</linearGradient>
</defs>
</svg>
